# xmcd
#
# Track frame offsets:
# 150
# 18950
# 38931
# 58491
# 81693
# 106043
# 127013
# 147276
# 166161
# 182601
# 204107
# 219630
# 235575
# 255211
# 274134
# 293112
#
# Disc length: 4166 seconds
#
# Revision: 0
# Processed by: cddbd v1.4PL0 Copyright (c) Steve Scherf et al.
# Submitted via: Audion 3.0.2 (http://www.panic.com/audion/)
#
DISCID=e3104410
DTITLE=l - quin
DYEAR=1900
DGENRE=
TTITLE0=m
TTITLE1=n
TTITLE2=b
TTITLE3=d
TTITLE4=sa
TTITLE5=x
TTITLE6=c
TTITLE7=x
TTITLE8=d
TTITLE9=f
TTITLE10=g
TTITLE11=h
TTITLE12=j
TTITLE13=k
TTITLE14=z
TTITLE15=t
EXTD=
EXTT0=
EXTT1=
EXTT2=
EXTT3=
EXTT4=
EXTT5=
EXTT6=
EXTT7=
EXTT8=
EXTT9=
EXTT10=
EXTT11=
EXTT12=
EXTT13=
EXTT14=
EXTT15=
PLAYORDER=
